<?xml version="1.0" standalone="no"?><!DOCTYPE svg PUBLIC "-//W3C//DTD SVG 1.1//EN" "http://www.w3.org/Graphics/SVG/1.1/DTD/svg11.dtd"><svg t="1621438333206" class="icon" viewBox="0 0 1024 1024" version="1.1" xmlns="http://www.w3.org/2000/svg" p-id="3050" xmlns:xlink="http://www.w3.org/1999/xlink" width="32" height="32"><defs><style type="text/css"></style></defs><path d="M375.414576 307.367198c-67.992744 0-123.386832 51.394515-123.386832 115.387686 0 63.393235 55.394088 115.387686 123.386832 115.387686s123.386832-51.994451 123.386833-115.387686c0-63.993171-55.394088-115.387686-123.386833-115.387686z m286.769397 0c-67.992744 0-123.386832 51.394515-123.386833 115.387686 0 63.393235 55.394088 115.387686 123.386833 115.387686 68.59268 0 123.386832-51.994451 123.386832-115.387686 0.199979-63.993171-54.794152-115.387686-123.386832-115.387686z m313.166579 179.980793l-11.99872 8.599082V99.389393c0-54.794152-41.195604-99.389393-91.990183-99.389393H153.238287c-50.794579 0-91.990183 44.595241-91.990183 99.389393V495.947073c-3.999573-2.799701-8.599082-5.799381-12.598656-8.599082-30.196777-21.197738-50.194643 7.999146-31.996585 35.396222 36.596095 45.195177 106.188668 100.589265 212.577314 143.984635C116.642192 1050.087936 504.000854 1111.281405 497.801515 914.902363c0-1.399851 0.599936-113.187921 0.599936-193.179384 10.198912 2.199765 18.797994 4.599509 27.397076 6.199338 0 79.391527 0.599936 185.580195 0.599936 186.980046-6.199338 196.579021 381.159323 135.385552 268.571339-247.973537 106.188668-43.395369 175.98122-98.789457 212.577314-143.984634 18.198058-27.597055-1.799808-56.59396-32.196564-35.596201z m-60.993491 38.395902c-137.785296 74.792018-256.572619 62.193363-321.165726 59.393662-47.394942-1.799808-65.193043 18.198058-67.392808 49.794686-20.597802-15.398357-37.19603-30.996692-40.595667-34.196351-10.198912-10.798848-27.397076-15.998293-54.194217-15.398356-63.393235 2.199765-179.380857 14.798421-314.766408-55.994025V144.58457c0-69.792552 17.798101-91.390247 81.191335-91.390247h635.332198c60.593534 0 81.791271 25.797247 81.791272 91.390247v381.159323z" p-id="3051"></path></svg>